<svg id="Layer_1" data-name="Layer 1" xmlns="http://www.w3.org/2000/svg" xmlns:xlink="http://www.w3.org/1999/xlink" viewBox="0 0 512 512"><defs><style>.cls-1,.cls-4{fill:none;}.cls-2{clip-path:url(#clip-path);}.cls-3{fill:#e79146;}.cls-4{stroke:#e06225;stroke-miterlimit:10;stroke-width:54px;}.cls-5{fill:#f4f4f4;}.cls-6{fill:#a44a24;}</style><clipPath id="clip-path"><rect class="cls-1" x="9.27" y="8.27" width="494.18" height="494.18"/></clipPath></defs><title>logo</title><g id="HT_Logo" data-name="HT Logo"><g class="cls-2"><g class="cls-2"><path class="cls-3" d="M476.45,255.36c0,121.56-98.54,220.09-220.09,220.09S36.27,376.92,36.27,255.36,134.81,35.27,256.36,35.27s220.09,98.54,220.09,220.09"/><circle class="cls-4" cx="256.36" cy="255.36" r="220.09"/><path class="cls-5" d="M131.84,186.68l95.44-93.9,18.84,43.16s-22.4,47.51,23.08,226.56c-16.7,20.66-36.73,57.3-36.73,57.3l-21.09-12.45s4.18-7.31,3.27-32.32S186.53,225.79,176,217.36c-10.28-8.24-34.2,6.85-34.2,6.85Z"/><path class="cls-5" d="M306.07,375.76S270.91,207.17,280.38,113.6l88.54,16.69-10.49,27.3s-16.51,1.77-18.65,14.44.35,101.09,12.82,185.06c0,0-29.62,7.36-46.53,18.67"/><path class="cls-5" d="M91.62,260.58l16.59,32.32c16.27-26.07,65.81-53,95.71-59.46,48.59-10.54,134.21,21.14,184.27,51.07a414.74,414.74,0,0,0-51.83-43.62l-.43-50.41c30.07,7.25,56.45,33.52,65.7,39.9L395.46,240c-7.39-3.78-26.54-15.85-44.73-17.59,45.9,46.25,58.4,86,58.4,86s-121.49-58.41-185.52-34c-20.69,7.89-69.49,55.7-79,70,8.94,5.66,13.1,8,31.89,13.5C145.23,375,85.09,382.21,62.05,375c4-50.57,19.28-81.43,29.57-114.46"/><path class="cls-6" d="M144.63,344.37l-18.5-14s88-142.5,283-22c0,0-159-95-264.5,36"/></g></g></g></svg>